<svg version="1.1" xmlns="http://www.w3.org/2000/svg" xmlns:xlink="http://www.w3.org/1999/xlink" viewBox="0 0 1000 1000">
                    <g fill="#099494"><path d="M500,10C229.4,10,10,229.4,10,500s219.4,490,490,490s490-219.4,490-490S770.6,10,500,10z M794,630.7c0,65.3-31.6,98-98,98H304c-65.3,0-98-32.7-98-98V369.3c0-65.3,34.7-98,98-98h392c66.4,0,98,33.7,98,98V630.7z"/><path d="M525.6,585.8c-0.8,1-1.1,2.2-2,3.1c-6.4,6.4-14.8,9.5-23.1,9.5s-16.7-3.1-23.1-9.5L434.5,546c-0.3,0.3-0.4,0.8-0.7,1.1L317.5,663.3h365L565.3,546.2L525.6,585.8z"/><path d="M682.5,336.7h-365L500,519.1L682.5,336.7z"/><path d="M388.7,500.2L271.3,382.9v234.3l116.2-116.2C387.9,500.6,388.3,500.5,388.7,500.2z"/><path d="M728.7,617.1V382.9L611.5,500L728.7,617.1z"/></g>
                    </svg>